<svg xmlns:x="http://ns.adobe.com/Extensibility/1.0/" xmlns:i="http://ns.adobe.com/AdobeIllustrator/10.0/" xmlns:graph="http://ns.adobe.com/Graphs/1.0/" xmlns="http://www.w3.org/2000/svg" xmlns:xlink="http://www.w3.org/1999/xlink" xmlns:a="http://ns.adobe.com/AdobeSVGViewerExtensions/3.0/" version="1.1" x="0px" y="0px" viewBox="0 0 100 100" enable-background="new 0 0 100 100" xml:space="preserve"><path data-refid="title" fill="#ffffff" d="M 1.36 0L 11.44-29.44L 15.52-29.44L 25.6 0L 22.32 0L 19.36-8.4L 7.52-8.4L 4.64 0L 1.36 0ZM 8.32-11.28L 18.56-11.28L 13.48-26.64L 8.32-11.28ZM 30.040000000000006 0L 30.040000000000006-29.44L 41.760000000000005-29.44Q 49.44000000000001-29.44  49.44000000000001-20.04L 49.44000000000001-20.04Q 49.44000000000001-14.52  47.14000000000001-12.44Q 44.84-10.36  41.60000000000001-10.36L 41.60000000000001-10.36Q 40.44000000000001-10.36  37.720000000000006-10.5Q 35.00000000000001-10.64  33.24000000000001-10.76L 33.24000000000001-10.76L 33.24000000000001 0L 30.040000000000006 0ZM 33.24000000000001-13.2L 41.20000000000001-13.2Q 46.24000000000001-13.2  46.24000000000001-20L 46.24000000000001-20Q 46.24000000000001-26.56  41.480000000000004-26.56L 41.480000000000004-26.56L 33.24000000000001-26.56L 33.24000000000001-13.2ZM 54.20000000000001 0L 54.20000000000001-29.44L 65.92000000000002-29.44Q 73.60000000000001-29.44  73.60000000000001-20.04L 73.60000000000001-20.04Q 73.60000000000001-14.52  71.30000000000001-12.44Q 69.00000000000001-10.36  65.76000000000002-10.36L 65.76000000000002-10.36Q 64.60000000000001-10.36  61.88000000000001-10.5Q 59.16000000000001-10.64  57.40000000000001-10.76L 57.40000000000001-10.76L 57.40000000000001 0L 54.20000000000001 0ZM 57.40000000000001-13.2L 65.36000000000001-13.2Q 70.4-13.2  70.4-20L 70.4-20Q 70.4-26.56  65.64000000000001-26.56L 65.64000000000001-26.56L 57.40000000000001-26.56L 57.40000000000001-13.2ZM 86.04 0L 86.04-9.76L 76.68-29.44L 80-29.44L 87.68-12.96L 95.36-29.44L 98.56-29.44L 89.24000000000001-9.76L 89.24000000000001 0L 86.04 0ZM 129.52 0L 126.44 0L 123.64-24.44L 116.56 0L 113.64 0L 106.44-24.24L 103.76 0L 100.68 0L 104.04-29.44L 107.28-29.44L 115.12-4L 122.80000000000001-29.44L 126.08000000000001-29.44L 129.52 0ZM 142.6 0.24Q 139.16 0.24  137.26000000000002-0.76Q 135.36-1.76  134.52-4.12Q 133.68-6.48  133.68-10.72L 133.68-10.72Q 133.68-15  134.54-17.36Q 135.4-19.72  137.32-20.68Q 139.24-21.64  142.64000000000001-21.64L 142.64000000000001-21.64Q 145.56-21.64  147.32-21Q 149.08-20.36  149.92000000000002-18.82Q 150.76-17.28  150.76-14.56L 150.76-14.56Q 150.76-11.84  149.18-10.62Q 147.6-9.4  144.68-9.4L 144.68-9.4L 136.84-9.4Q 136.88-6.64  137.4-5.14Q 137.92000000000002-3.64  139.32-2.94Q 140.72-2.24  143.36-2.24L 143.36-2.24L 150.24-2.24L 150.24-0.32Q 148.08-0.04  146.4 0.1Q 144.72 0.24  142.6 0.24L 142.6 0.24ZM 136.8-11.48L 144.4-11.48Q 146.24-11.48  147.08-12.16Q 147.92000000000002-12.84  147.92000000000002-14.52L 147.92000000000002-14.52Q 147.92000000000002-17.2  146.74-18.22Q 145.56-19.24  142.64000000000001-19.24L 142.64000000000001-19.24Q 140.32-19.24  139.08-18.56Q 137.84-17.88  137.32-16.24Q 136.8-14.6  136.8-11.48L 136.8-11.48ZM 160.24 0.24Q 157.84000000000003 0.24  156.34000000000003-1.2Q 154.84000000000003-2.64  154.84000000000003-5.12L 154.84000000000003-5.12L 154.84000000000003-6.64Q 154.84000000000003-9.24  156.54000000000002-10.76Q 158.24-12.28  161.52-12.28L 161.52-12.28L 168.76000000000002-12.28L 168.76000000000002-14.92Q 168.76000000000002-17.08  167.58-18.12Q 166.40000000000003-19.16  163.24-19.16L 163.24-19.16L 156.60000000000002-19.16L 156.60000000000002-21.04Q 160.36-21.68  164.40000000000003-21.68L 164.40000000000003-21.68Q 168.28000000000003-21.68  170.10000000000002-20.1Q 171.92000000000002-18.52  171.92000000000002-15.08L 171.92000000000002-15.08L 171.92000000000002 0L 169.48000000000002 0L 168.88000000000002-2.44Q 168.60000000000002-2.2  167.14000000000001-1.52Q 165.68-0.84  163.8-0.3Q 161.92000000000002 0.24  160.24 0.24L 160.24 0.24ZM 161.64000000000001-2.12Q 162.72000000000003-2.12  164.28000000000003-2.52Q 165.84000000000003-2.92  167.10000000000002-3.36Q 168.36-3.8  168.76000000000002-3.96L 168.76000000000002-3.96L 168.76000000000002-10.68L 162.24-10.4Q 160.04000000000002-10.32  159.02-9.32Q 158.00000000000003-8.32  158.00000000000003-6.6L 158.00000000000003-6.6L 158.00000000000003-5.64Q 158.00000000000003-3.8  159.06000000000003-2.96Q 160.12000000000003-2.12  161.64000000000001-2.12L 161.64000000000001-2.12ZM 183.48000000000002 0.04Q 180.64000000000001 0.04  179.26-1.52Q 177.88-3.08  177.88-6.84L 177.88-6.84L 177.88-30.52L 181.04-30.52L 181.04-7.24Q 181.04-4.6  181.76-3.64Q 182.48-2.68  184.04-2.48L 184.04-2.48L 186.2-2.24L 186.2 0.04L 183.48000000000002 0.04Z" data-box="41.84 199.50 216.33 36.00 " transform="matrix(1.1703510966231434 0 0 1.1703510966231434 40.244476284916466 235.21911600468255)"></path></svg>