<?xml version="1.0" encoding="UTF-8" standalone="no"?>
<svg
   xmlns:dc="http://purl.org/dc/elements/1.1/"
   xmlns:cc="http://creativecommons.org/ns#"
   xmlns:rdf="http://www.w3.org/1999/02/22-rdf-syntax-ns#"
   xmlns:svg="http://www.w3.org/2000/svg"
   xmlns="http://www.w3.org/2000/svg"
   xmlns:sodipodi="http://sodipodi.sourceforge.net/DTD/sodipodi-0.dtd"
   xmlns:inkscape="http://www.inkscape.org/namespaces/inkscape"
   width="1792"
   height="1792"
   viewBox="0 0 1792 1792"
   version="1.1"
   id="svg4"
   sodipodi:docname="cart-arrow-down.svg"
   inkscape:version="0.92.3 (2405546, 2018-03-11)">
  <metadata
     id="metadata10">
    <rdf:RDF>
      <cc:Work
         rdf:about="">
        <dc:format>image/svg+xml</dc:format>
        <dc:type
           rdf:resource="http://purl.org/dc/dcmitype/StillImage" />
        <dc:title></dc:title>
      </cc:Work>
    </rdf:RDF>
  </metadata>
  <defs
     id="defs8" />
  <sodipodi:namedview
     pagecolor="#ffffff"
     bordercolor="#666666"
     borderopacity="1"
     objecttolerance="10"
     gridtolerance="10"
     guidetolerance="10"
     inkscape:pageopacity="0"
     inkscape:pageshadow="2"
     inkscape:window-width="1920"
     inkscape:window-height="1056"
     id="namedview6"
     showgrid="false"
     inkscape:pagecheckerboard="true"
     inkscape:zoom="0.13169643"
     inkscape:cx="896"
     inkscape:cy="118.45254"
     inkscape:window-x="0"
     inkscape:window-y="24"
     inkscape:window-maximized="0"
     inkscape:current-layer="svg4" />
  <path
     d="m 704,1536 c 0,35.3333 -12.5,65.5 -37.5,90.5 -25,25 -55.16667,37.5 -90.5,37.5 -35.33333,0 -65.5,-12.5 -90.5,-37.5 -25,-25 -37.5,-55.1667 -37.5,-90.5 0,-35.3333 12.5,-65.5 37.5,-90.5 25,-25 55.16667,-37.5 90.5,-37.5 35.33333,0 65.5,12.5 90.5,37.5 25,25 37.5,55.1667 37.5,90.5 z m 896,0 c 0,35.3333 -12.5,65.5 -37.5,90.5 -25,25 -55.1667,37.5 -90.5,37.5 -35.3333,0 -65.5,-12.5 -90.5,-37.5 -25,-25 -37.5,-55.1667 -37.5,-90.5 0,-35.3333 12.5,-65.5 37.5,-90.5 25,-25 55.1667,-37.5 90.5,-37.5 35.3333,0 65.5,12.5 90.5,37.5 25,25 37.5,55.1667 37.5,90.5 z M 1728,448 v 512 c 0,16 -5.3333,30.16667 -16,42.5 -10.6667,12.3333 -24.3333,19.5 -41,21.5 L 627,1146 c 0.66667,4.6667 2.16667,11.8333 4.5,21.5 2.33333,9.6667 4.33333,18.5 6,26.5 1.66667,8 2.5,15.3333 2.5,22 0,10.6667 -8,32 -24,64 h 920 c 17.3333,0 32.3333,6.3333 45,19 12.6667,12.6667 19,27.6667 19,45 0,17.3333 -6.3333,32.3333 -19,45 -12.6667,12.6667 -27.6667,19 -45,19 H 512 c -17.33333,0 -32.33333,-6.3333 -45,-19 -12.66667,-12.6667 -19,-27.6667 -19,-45 0,-9.3333 3.66667,-22.5 11,-39.5 7.33333,-17 17.16667,-36.8333 29.5,-59.5 12.33333,-22.6667 19.16667,-35.3333 20.5,-38 L 332,384 H 128 c -17.33333,0 -32.333333,-6.33333 -45,-19 -12.666667,-12.66667 -19,-27.66667 -19,-45 0,-17.33333 6.333333,-32.33333 19,-45 12.666667,-12.66667 27.66667,-19 45,-19 h 256 c 10.66667,0 20.16667,2.16667 28.5,6.5 8.33333,4.33333 15,9.5 20,15.5 5,6 9.33333,14.16667 13,24.5 3.66667,10.33333 6.16667,19.16667 7.5,26.5 1.33333,7.33333 3.16667,17.16667 5.5,29.5 2.33333,12.33333 3.83333,20.83333 4.5,25.5 h 1201 c 17.3333,0 32.3333,6.33333 45,19 12.6667,12.66667 19,27.66667 19,45 z"
     id="path2"
     inkscape:connector-curvature="0"
     style="fill:#ffffff"
     sodipodi:nodetypes="sssssssssssssssssssssccssscssssssssssccssssssssssscsss" />
</svg>
